<svg xmlns="http://www.w3.org/2000/svg" xmlns:lucid="lucid" width="240" height="240"><g lucid:page-tab-id="0_0" stroke="#5e5e5e" stroke-width="3" fill="#5e5e5e"><path d="M20 30c0-5.52 4.48-10 10-10s10 4.48 10 10v180c0 5.52-4.48 10-10 10s-10-4.48-10-10zM200 30c0-5.52 4.48-10 10-10s10 4.48 10 10v180c0 5.52-4.48 10-10 10s-10-4.48-10-10z"/><path d="M20 210c0-5.52 4.48-10 10-10h180c5.52 0 10 4.48 10 10s-4.48 10-10 10H30c-5.52 0-10-4.48-10-10zM20 30c0-5.52 4.48-10 10-10h180c5.52 0 10 4.48 10 10s-4.48 10-10 10H30c-5.52 0-10-4.48-10-10z"/></g></svg>