<svg xmlns="http://www.w3.org/2000/svg" xmlns:lucid="lucid" width="240" height="240"><g lucid:page-tab-id="0_0" stroke="#5e5e5e" fill="#5e5e5e"><path d="M20 30c0-5.52 4.48-10 10-10s10 4.48 10 10v180c0 5.52-4.48 10-10 10s-10-4.48-10-10zM200 30c0-5.52 4.48-10 10-10s10 4.48 10 10v180c0 5.52-4.48 10-10 10s-10-4.48-10-10z" stroke-width="3"/><path d="M20 210c0-5.52 4.48-10 10-10h180c5.52 0 10 4.48 10 10s-4.48 10-10 10H30c-5.52 0-10-4.48-10-10zM20 30c0-5.52 4.48-10 10-10h180c5.52 0 10 4.48 10 10s-4.48 10-10 10H30c-5.52 0-10-4.48-10-10z" stroke-width="3"/><path d="M100 66c0-3.3 2.7-6 6-6h28c3.3 0 6 2.7 6 6v8c0 3.3-2.7 6-6 6h-28c-3.3 0-6-2.7-6-6z" stroke-width="10"/><path d="M90 66c0-3.3 2.7-6 6-6h8c3.3 0 6 2.7 6 6v28c0 3.3-2.7 6-6 6h-8c-3.3 0-6-2.7-6-6zM125 66c0-3.3 2.7-6 6-6h8c3.3 0 6 2.7 6 6v48c0 3.3-2.7 6-6 6h-8c-3.3 0-6-2.7-6-6zM112.5 126c0-3.3 2.7-6 6-6h3c3.3 0 6 2.7 6 6v8c0 3.3-2.7 6-6 6h-3c-3.3 0-6-2.7-6-6zM112.5 166c0-3.3 2.7-6 6-6h3c3.3 0 6 2.7 6 6v8c0 3.3-2.7 6-6 6h-3c-3.3 0-6-2.7-6-6z" stroke-width="10"/></g></svg>